<svg id="Layer_1" data-name="Layer 1" xmlns="http://www.w3.org/2000/svg" viewBox="0 0 141.73 141.73"><defs><style>.cls-1{fill:#4868b1;}.cls-2{fill:#eead2b;}</style></defs><title>Minepedia-logo</title><path class="cls-1" d="M119.2,21.28a.84.84,0,0,0-.6.25L100.37,39.76,67,73.09v28.8l33.33-34.3v71.13h19.68V22.13a.85.85,0,0,0-.85-.85Z"/><path class="cls-2" d="M11.39,21.28a.86.86,0,0,1,.6.25L30.22,39.76,63.55,73.09v28.8L30.22,67.59v71.13H10.54V22.13a.85.85,0,0,1,.85-.85Z"/><polygon class="cls-2" points="137.32 3.01 121.76 18.24 121.76 138.72 137.32 123.5 137.32 3.01"/></svg>